HIERARCHY
ROOT Hips
{
	OFFSET -0.001795 -0.223333 0.028219
	CHANNELS 6 Xposition Yposition Zposition Zrotation Yrotation Xrotation 
	JOINT LeftUpLeg
	{
		OFFSET 0.069520 -0.091406 -0.006815
		CHANNELS 3 Zrotation Yrotation Xrotation
		JOINT LeftLeg
		{
			OFFSET 0.034277 -0.375199 -0.004496
			CHANNELS 3 Zrotation Yrotation Xrotation
			JOINT LeftFoot
			{
				OFFSET -0.013596 -0.397961 -0.043693
				CHANNELS 3 Zrotation Yrotation Xrotation
				JOINT LeftToe
				{
					OFFSET 0.026358 -0.055791 0.119288
					CHANNELS 3 Zrotation Yrotation Xrotation
					End Site
					{
						OFFSET 0.000000 0.000000 0.000000
					}
				}
			}
		}
	}
	JOINT RightUpLeg
	{
		OFFSET -0.067670 -0.090522 -0.004320
		CHANNELS 3 Zrotation Yrotation Xrotation
		JOINT RightLeg
		{
			OFFSET -0.038290 -0.382569 -0.008850
			CHANNELS 3 Zrotation Yrotation Xrotation
			JOINT RightFoot
			{
				OFFSET 0.015774 -0.398415 -0.042312
				CHANNELS 3 Zrotation Yrotation Xrotation
				JOINT RightToe
				{
					OFFSET -0.025372 -0.048144 0.123348
					CHANNELS 3 Zrotation Yrotation Xrotation
					End Site
					{
						OFFSET 0.000000 0.000000 0.000000
					}
				}
			}
		}
	}
	JOINT Spine
	{
		OFFSET -0.002533 0.108963 -0.026696
		CHANNELS 3 Zrotation Yrotation Xrotation
		JOINT Spine1
		{
			OFFSET 0.005487 0.135180 0.001092
			CHANNELS 3 Zrotation Yrotation Xrotation
			JOINT Spine2
			{
				OFFSET 0.001457 0.052922 0.025425
				CHANNELS 3 Zrotation Yrotation Xrotation
				JOINT Neck
				{
					OFFSET -0.002778 0.213870 -0.042857
					CHANNELS 3 Zrotation Yrotation Xrotation
					JOINT Head
					{
						OFFSET 0.005152 0.064970 0.051349
						CHANNELS 3 Zrotation Yrotation Xrotation
						End Site
						{
							OFFSET 0.000000 0.000000 0.000000
						}
					}
				}
				JOINT LeftShoulder
				{
					OFFSET 0.078845 0.121749 -0.034090
					CHANNELS 3 Zrotation Yrotation Xrotation
					JOINT LeftArm
					{
						OFFSET 0.090977 0.030469 -0.008868
						CHANNELS 3 Zrotation Yrotation Xrotation
						JOINT LeftForeArm
						{
							OFFSET 0.259612 -0.012772 -0.027456
							CHANNELS 3 Zrotation Yrotation Xrotation
							JOINT LeftHand
							{
								OFFSET 0.249234 0.008986 -0.001171
								CHANNELS 3 Zrotation Yrotation Xrotation
								End Site
								{
									OFFSET 0.000000 0.000000 0.000000
								}
							}
						}
					}
				}
				JOINT RightShoulder
				{
					OFFSET -0.081759 0.118833 -0.038615
					CHANNELS 3 Zrotation Yrotation Xrotation
					JOINT RightArm
					{
						OFFSET -0.096012 0.032551 -0.009143
						CHANNELS 3 Zrotation Yrotation Xrotation
						JOINT RightForeArm
						{
							OFFSET -0.253742 -0.013329 -0.021401
							CHANNELS 3 Zrotation Yrotation Xrotation
							JOINT RightHand
							{
								OFFSET -0.255298 0.007772 -0.005559
								CHANNELS 3 Zrotation Yrotation Xrotation
								End Site
								{
									OFFSET 0.000000 0.000000 0.000000
								}
							}
						}
					}
				}
			}
		}
	}
}
MOTION
Frames: 11
Frame Time: 0.050000
0.029975 0.919771 -0.095507 -1.534035 -18.866376 6.590292 8.812373 0.142269 -7.940662 -7.141267 1.957179 12.141573 9.409620 20.494212 -0.909778 0.000000 0.000000 0.000000 -0.115667 2.683477 -21.395958 -4.616373 2.369058 16.974897 3.638401 8.499335 1.197969 0.000000 0.000000 0.000000 6.565680 -0.302306 1.648223 2.093899 -0.809849 3.887017 -12.861323 -0.384718 4.970641 17.368674 -11.034441 -11.481669 0.000000 0.000000 0.000000 -10.906824 -37.570248 18.418933 -11.124887 -51.348044 1.524200 73.809611 -29.170720 -18.699736 0.000000 0.000000 0.000000 -0.361121 22.506994 7.384013 0.862989 39.989332 -2.756787 -48.678557 30.799725 -13.205306 0.000000 0.000000 0.000000 
0.030250 0.920023 -0.094877 -1.726517 -19.842156 6.978892 8.691147 0.148394 -7.882940 -7.074782 1.979947 12.091414 9.700266 21.078705 -0.478051 0.000000 0.000000 0.000000 0.257972 2.860285 -22.004110 -4.637596 2.426025 17.159686 4.039825 8.838292 1.883438 0.000000 0.000000 0.000000 6.933922 -0.329920 1.797632 2.026685 -0.741307 4.156832 -12.790890 -1.082349 4.853197 16.337543 -10.538866 -10.839334 0.000000 0.000000 0.000000 -9.932836 -37.641488 18.324855 -9.406938 -52.653424 1.039805 71.902735 -27.751879 -16.965875 0.000000 0.000000 0.000000 -0.020904 22.392682 7.289655 0.441616 40.257352 -2.987703 -47.569930 30.647942 -12.943847 0.000000 0.000000 0.000000 
0.030254 0.920227 -0.093760 -1.981078 -20.697659 7.445402 8.630915 0.159744 -7.927767 -7.030867 2.003999 12.027728 9.943807 21.599126 -0.268303 0.000000 0.000000 0.000000 0.690880 3.051571 -22.608941 -4.903442 2.522758 17.232492 4.379877 9.463284 2.143139 0.000000 0.000000 0.000000 7.112065 -0.348003 1.880920 2.151212 -0.772038 4.285810 -12.625350 -1.748678 4.664846 15.451967 -9.989057 -10.793078 0.000000 0.000000 0.000000 -8.997259 -37.465996 18.098355 -7.784709 -53.503993 0.538799 70.268430 -26.231559 -15.339204 0.000000 0.000000 0.000000 0.193205 22.456407 7.246707 0.120208 40.513635 -3.190148 -46.346814 30.853867 -12.788052 0.000000 0.000000 0.000000 
0.030098 0.920412 -0.091982 -1.959625 -21.587203 7.531514 8.328599 0.146859 -7.610129 -6.678126 1.925932 11.831750 10.165399 22.060234 0.029673 0.000000 0.000000 0.000000 0.708047 3.149274 -22.967327 -5.030608 2.622093 17.509367 4.947257 10.479918 2.582900 0.000000 0.000000 0.000000 7.277547 -0.350716 1.893131 1.991075 -0.662361 4.434323 -12.367057 -1.982573 4.692527 14.957003 -9.808326 -10.267230 0.000000 0.000000 0.000000 -8.300182 -37.646759 18.045999 -6.798407 -54.178563 0.237274 69.228105 -24.944829 -14.161519 0.000000 0.000000 0.000000 0.225636 22.368312 7.164211 -0.256817 40.794199 -3.397776 -45.155839 30.896472 -12.522076 0.000000 0.000000 0.000000 
0.029736 0.920460 -0.089818 -1.975311 -22.272732 7.523110 8.115138 0.141356 -7.316677 -6.529732 1.899588 11.669876 10.292101 22.344291 0.163951 0.000000 0.000000 0.000000 0.824442 3.193745 -23.007834 -5.428577 2.768381 17.681288 5.241604 11.353624 2.507929 0.000000 0.000000 0.000000 7.462285 -0.346856 1.862551 1.843934 -0.575662 4.372490 -12.306569 -1.978727 4.932126 14.615422 -9.665778 -10.077646 0.000000 0.000000 0.000000 -7.905453 -37.620986 17.938304 -6.085872 -54.438064 -0.015217 68.043173 -24.194296 -13.363998 0.000000 0.000000 0.000000 0.019822 22.556849 7.190793 -0.721930 40.904440 -3.606365 -44.406775 30.699953 -12.257735 0.000000 0.000000 0.000000 
0.029187 0.920781 -0.087711 -1.741508 -22.776690 7.493570 7.577154 0.092762 -7.199833 -6.295972 1.862040 11.728203 10.292671 22.361215 0.255802 0.000000 0.000000 0.000000 0.675637 3.188648 -23.013453 -5.751290 2.869216 17.726170 5.604286 12.502655 2.375979 0.000000 0.000000 0.000000 7.585708 -0.323244 1.635437 1.642927 -0.452706 4.541546 -12.201303 -1.578974 4.761629 14.593215 -9.560046 -10.488915 0.000000 0.000000 0.000000 -7.626354 -38.161286 18.058434 -5.849912 -54.140699 -0.117158 67.038155 -23.898987 -12.975810 0.000000 0.000000 0.000000 -0.123222 22.549282 7.193192 -0.990380 40.784855 -3.658074 -43.881070 30.524481 -11.991415 0.000000 0.000000 0.000000 
0.028404 0.921295 -0.086014 -1.569553 -22.936089 7.386297 7.337804 0.071640 -7.190915 -6.141314 1.850319 11.988588 10.342730 22.427893 0.415321 0.000000 0.000000 0.000000 0.582634 3.174082 -22.978212 -6.021433 3.016305 18.122917 5.628711 12.588903 2.359679 0.000000 0.000000 0.000000 7.760680 -0.321782 1.628623 1.597481 -0.426338 4.547614 -12.093893 -1.241891 4.821551 14.469752 -9.489873 -10.468390 0.000000 0.000000 0.000000 -7.649058 -38.107061 17.988463 -5.868644 -54.129846 -0.128058 65.981701 -23.736674 -12.659734 0.000000 0.000000 0.000000 -0.237672 22.821219 7.290203 -1.612465 40.568021 -3.806804 -43.679701 30.235059 -11.770745 0.000000 0.000000 0.000000 
0.027393 0.921821 -0.084862 -1.482627 -23.124787 7.424438 7.219133 0.060741 -7.386919 -6.072964 1.883932 12.443511 10.527410 22.753204 0.625233 0.000000 0.000000 0.000000 0.617342 3.186666 -22.999846 -6.225377 3.101942 18.273392 5.870380 13.219544 2.390628 0.000000 0.000000 0.000000 8.062061 -0.322953 1.598558 1.415566 -0.331185 4.542197 -11.968196 -0.765445 4.787562 14.600057 -9.612359 -10.225301 0.000000 0.000000 0.000000 -7.944655 -38.518323 18.241698 -5.487586 -53.333423 -0.348666 64.874032 -23.878460 -12.554351 0.000000 0.000000 0.000000 -0.465193 22.908979 7.331443 -2.323410 40.308580 -3.965640 -43.939717 29.928678 -11.674195 0.000000 0.000000 0.000000 
0.026168 0.922195 -0.084172 -1.442781 -22.938108 7.541606 7.295154 0.062125 -7.498025 -5.957727 1.860786 12.638775 10.447449 22.563365 0.645321 0.000000 0.000000 0.000000 0.696761 3.200632 -23.045750 -6.322129 3.146435 18.398572 5.781088 13.478794 2.001223 0.000000 0.000000 0.000000 8.367239 -0.316294 1.469880 1.387794 -0.310495 4.683043 -11.762815 -0.609954 4.577574 14.707186 -9.640412 -10.288145 0.000000 0.000000 0.000000 -8.408188 -38.578757 18.420660 -5.495257 -52.629809 -0.391177 63.679638 -24.467138 -12.655706 0.000000 0.000000 0.000000 -0.368418 22.846710 7.327898 -3.071902 40.365560 -4.174006 -44.490009 29.913946 -11.788411 0.000000 0.000000 0.000000 
0.024974 0.922072 -0.083750 -1.503300 -22.850381 7.638556 7.555884 0.088589 -7.759677 -6.107624 1.956169 13.180294 10.436851 22.607382 0.352510 0.000000 0.000000 0.000000 0.634198 3.208038 -23.140987 -6.271611 3.142386 18.465408 5.839442 13.886493 1.820397 0.000000 0.000000 0.000000 8.509502 -0.321329 1.476433 1.465170 -0.337832 4.897257 -11.420802 -0.298224 4.338995 14.671651 -9.683033 -9.805612 0.000000 0.000000 0.000000 -8.436361 -38.603645 18.382211 -5.185582 -52.086231 -0.539738 62.416554 -24.688754 -12.515394 0.000000 0.000000 0.000000 -0.672959 22.728803 7.299587 -3.782715 40.192596 -4.340491 -45.183127 29.737979 -11.880306 0.000000 0.000000 0.000000 
0.023956 0.921604 -0.083524 -1.438975 -22.796993 7.457120 7.622117 0.096798 -7.661941 -6.272318 2.028673 13.424168 10.455607 22.661341 0.294459 0.000000 0.000000 0.000000 0.691249 3.189040 -23.018873 -6.253149 3.194122 18.761899 5.858431 14.308713 1.537586 0.000000 0.000000 0.000000 8.664040 -0.352898 1.774081 1.553903 -0.372711 5.123380 -11.216961 -0.282309 4.161016 14.641321 -9.724437 -9.421509 0.000000 0.000000 0.000000 -8.035661 -38.620149 18.211481 -4.397882 -51.932376 -0.828037 61.162181 -24.341831 -12.043301 0.000000 0.000000 0.000000 -0.975359 22.895938 7.345144 -4.633774 39.930886 -4.557045 -45.894767 29.177408 -11.845823 0.000000 0.000000 0.000000 
